<svg version="1.1" xmlns="http://www.w3.org/2000/svg" viewBox="0 0 291.3307129152097 244.41595458984375" width="291.3307129152097" height="244.41595458984375">
  <!-- svg-source:excalidraw -->
  
  <defs>
    <style class="style-fonts">
      @font-face {
        font-family: "Virgil";
        src: url("https://excalidraw.com/Virgil.woff2");
      }
      @font-face {
        font-family: "Cascadia";
        src: url("https://excalidraw.com/Cascadia.woff2");
      }
      @font-face {
        font-family: "Assistant";
        src: url("https://excalidraw.com/Assistant-Regular.woff2");
      }
    </style>
    
  </defs>
  <rect x="0" y="0" width="291.3307129152097" height="244.41595458984375" fill="#ffffff"></rect><g stroke-linecap="round" transform="translate(10 10) rotate(0 135.06076049804688 112.20797729492188)"><path d="M0 0 C70.1 2.08, 142.68 0.82, 270.12 0 M0 0 C89.34 -1.16, 178.54 -0.9, 270.12 0 M270.12 0 C267.49 48.8, 268.77 93.97, 270.12 224.42 M270.12 0 C268.97 71.85, 269.43 145.01, 270.12 224.42 M270.12 224.42 C197.27 224.21, 122.57 222.66, 0 224.42 M270.12 224.42 C173.52 226.72, 77.76 225.95, 0 224.42 M0 224.42 C3.5 142.77, 1.75 57.96, 0 0 M0 224.42 C-1.53 137.93, -1.07 53.58, 0 0" stroke="#000000" stroke-width="1" fill="none"></path></g><g stroke-linecap="round"><g transform="translate(12.425354003903976 48.556610107421534) rotate(0 134.69192504882812 -0.861907958984375)"><path d="M0.48 1 C45.44 0.85, 224.24 -0.97, 268.91 -1.37 M-0.72 0.49 C44.1 0, 222.44 -3.24, 267.71 -3.31" stroke="#000000" stroke-width="1" fill="none"></path></g></g><mask></mask><g stroke-opacity="0.5" fill-opacity="0.5" transform="translate(28.67463650740467 20.707977294924945) rotate(0 23.22997283935547 12.5)"><text x="0" y="0" font-family="Virgil, Segoe UI Emoji" font-size="20px" fill="#1e1e1e" text-anchor="start" style="white-space: pre;" direction="ltr" dominant-baseline="text-before-edge">Post</text></g><g stroke-opacity="0.5" fill-opacity="0.5" transform="translate(21.6746365074074 68.70797729492335) rotate(0 59.93995666503906 75)"><text x="0" y="0" font-family="Virgil, Segoe UI Emoji" font-size="20px" fill="#1e1e1e" text-anchor="start" style="white-space: pre;" direction="ltr" dominant-baseline="text-before-edge">pk id</text><text x="0" y="25" font-family="Virgil, Segoe UI Emoji" font-size="20px" fill="#1e1e1e" text-anchor="start" style="white-space: pre;" direction="ltr" dominant-baseline="text-before-edge">   title</text><text x="0" y="50" font-family="Virgil, Segoe UI Emoji" font-size="20px" fill="#1e1e1e" text-anchor="start" style="white-space: pre;" direction="ltr" dominant-baseline="text-before-edge">   body</text><text x="0" y="75" font-family="Virgil, Segoe UI Emoji" font-size="20px" fill="#1e1e1e" text-anchor="start" style="white-space: pre;" direction="ltr" dominant-baseline="text-before-edge">fk userId</text><text x="0" y="100" font-family="Virgil, Segoe UI Emoji" font-size="20px" fill="#1e1e1e" text-anchor="start" style="white-space: pre;" direction="ltr" dominant-baseline="text-before-edge">   tags[]</text><text x="0" y="125" font-family="Virgil, Segoe UI Emoji" font-size="20px" fill="#1e1e1e" text-anchor="start" style="white-space: pre;" direction="ltr" dominant-baseline="text-before-edge">   reactions</text></g></svg>